<svg width="609" height="500" viewBox="0 0 609 500" fill="none" xmlns="http://www.w3.org/2000/svg">
<path fill-rule="evenodd" clip-rule="evenodd" d="M311.228 66.8509C307.515 69.8221 303.801 67.5937 305.286 63.8798C306.029 60.9086 311.971 60.1659 311.228 66.8509ZM262.204 268.147H352.825C355.796 268.147 358.024 265.175 360.995 261.462L408.534 213.923C410.762 211.695 415.219 208.724 415.219 205.01V115.875C415.219 112.904 413.733 112.904 412.248 111.418C410.762 109.933 409.277 109.19 408.534 107.704C405.563 103.99 403.334 101.762 400.363 98.7909L360.253 57.9375C358.024 55.7091 355.053 49.7668 351.339 49.7668H262.947C259.976 49.7668 243.635 68.3365 241.406 71.3077L209.466 103.99C207.238 106.219 206.495 106.962 203.524 109.19C202.039 110.675 199.81 112.904 199.067 115.132V201.296C199.067 208.724 198.325 206.495 207.238 214.666L255.519 262.947C257.005 265.175 259.233 268.147 262.204 268.147Z" fill="#EF4836"/>
<path fill-rule="evenodd" clip-rule="evenodd" d="M192.382 113.647C192.382 110.675 197.582 105.476 199.81 103.248C202.781 100.276 204.267 97.3053 207.981 95.0769C213.923 89.8774 219.123 82.4495 225.065 77.25C231.007 72.0505 236.207 64.6226 242.149 59.4231C248.091 54.9663 256.262 43.0817 259.233 43.0817H354.31C358.024 43.0817 369.166 56.4519 372.137 59.4231C373.623 60.9087 375.108 62.3942 376.594 63.8798L389.221 77.25C394.421 83.1923 422.647 109.933 422.647 113.647V207.981C422.647 212.438 419.675 213.923 418.19 215.409L366.195 266.661C358.024 275.575 360.252 275.575 352.824 275.575H261.462C254.776 275.575 255.519 274.089 248.091 266.661L202.038 220.608C198.324 216.894 192.382 211.695 192.382 207.981V113.647ZM180.498 108.447V213.18C180.498 216.151 184.954 219.123 188.668 222.837C191.639 225.808 194.611 228.779 197.582 232.493L248.834 283.002C250.32 284.488 251.805 286.716 254.034 286.716H360.252C363.224 286.716 366.937 282.26 369.909 279.288C373.623 275.575 375.851 272.603 379.565 269.632C386.25 262.947 392.192 257.005 398.135 251.062L430.817 218.38C432.303 216.894 434.531 216.151 434.531 213.18V109.19C434.531 106.219 427.846 100.276 426.361 98.0481L365.452 35.6538C363.966 34.1683 362.481 31.1971 359.51 31.1971H255.519C251.805 31.1971 239.921 45.3101 235.464 49.7668L226.55 59.4231C223.579 62.3942 219.865 66.1082 216.894 69.0793C209.466 75.0216 205.752 81.7067 198.324 88.3918C193.868 92.1058 187.183 100.276 181.983 105.476C180.498 106.962 180.498 105.476 180.498 108.447Z" fill="#EF4836"/>
<path fill-rule="evenodd" clip-rule="evenodd" d="M262.204 268.147C259.233 268.147 257.005 265.176 255.519 262.947L207.238 214.666C198.325 206.495 199.067 208.724 199.067 201.296V115.132C199.81 112.904 202.039 110.675 203.524 109.19C206.495 106.962 207.238 106.219 209.466 103.99L241.406 71.3077C243.635 68.3365 259.976 49.7668 262.947 49.7668H351.339C355.053 49.7668 358.024 55.7091 360.253 57.9375L400.363 98.7909C403.334 101.762 405.563 103.99 408.534 107.704C409.277 109.19 410.762 109.933 412.248 111.418C413.733 112.904 415.219 112.904 415.219 115.875V205.01C415.219 208.724 410.762 211.695 408.534 213.923L360.995 261.462C358.024 265.176 355.796 268.147 352.825 268.147H262.204ZM192.382 113.647V207.981C192.382 211.695 198.325 216.894 202.039 220.608L248.091 266.661C255.519 274.089 254.777 275.575 261.462 275.575H352.825C360.253 275.575 358.024 275.575 366.195 266.661L418.19 215.409C419.676 213.923 422.647 212.438 422.647 207.981V113.647C422.647 109.933 394.421 83.1923 389.221 77.25L376.594 63.8798C375.108 62.3942 373.623 60.9087 372.137 59.4231C369.166 56.4519 358.024 43.0817 354.31 43.0817H259.233C256.262 43.0817 248.091 54.9664 242.149 59.4231C236.207 64.6226 231.007 72.0505 225.065 77.25C219.123 82.4495 213.923 89.8774 207.981 95.0769C204.267 97.3053 202.781 100.276 199.81 103.248C197.582 105.476 192.382 110.675 192.382 113.647Z" fill="white"/>
<path fill-rule="evenodd" clip-rule="evenodd" d="M301.572 289.687H306.029V490.983V493.212H301.572V490.983V289.687ZM295.63 495.44H320.142V290.43L319.399 288.202H295.63V495.44Z" fill="#95A5A6"/>
<path fill-rule="evenodd" clip-rule="evenodd" d="M295.63 288.202H319.399L320.142 290.43V495.44H295.63V288.202ZM180.498 108.447C180.498 105.476 180.498 106.962 181.983 105.476C187.183 100.276 193.868 92.1058 198.325 88.3918C205.752 81.7067 209.466 75.0216 216.894 69.0793C219.865 66.1082 223.579 62.3942 226.551 59.4231L235.464 49.7668C239.921 45.3101 251.805 31.1971 255.519 31.1971H359.51C362.481 31.1971 363.966 34.1683 365.452 35.6539L426.361 98.0481C427.846 100.276 434.531 106.219 434.531 109.19V213.18C434.531 216.151 432.303 216.894 430.817 218.38L398.135 251.063C392.192 257.005 386.25 262.947 379.565 269.632C375.851 272.603 373.623 275.575 369.909 279.288C366.938 282.26 363.224 286.716 360.252 286.716H254.034C251.805 286.716 250.32 284.488 248.834 283.002L197.582 232.493C194.611 228.779 191.639 225.808 188.668 222.837C184.954 219.123 180.498 216.151 180.498 213.18V108.447ZM179.755 106.962V214.666C179.755 216.894 213.923 249.577 215.409 251.805C217.637 254.034 250.32 288.202 253.291 288.202H294.887V492.469C294.887 493.954 294.887 493.954 293.402 493.954H245.12V499.154H369.166V493.954H320.885V288.202H360.995C363.224 288.202 396.649 254.034 398.877 251.805C405.563 245.12 411.505 239.178 417.447 233.236C419.676 231.007 435.274 216.151 435.274 213.923V107.704C435.274 105.476 428.589 99.5337 426.361 97.3053C424.875 95.8197 424.132 94.3341 421.904 92.8486L398.877 68.3365C392.192 61.6514 386.25 55.7091 380.308 49.024C376.594 46.0529 362.481 30.4543 360.995 30.4543H254.034C251.805 30.4543 245.863 37.8822 243.635 39.3678C240.664 43.0817 238.435 45.3101 234.721 49.024L188.668 97.3053C186.44 98.7909 179.755 104.733 179.755 106.962Z" fill="#4C525A"/>
<path fill-rule="evenodd" clip-rule="evenodd" d="M499.154 245.12C484.298 237.692 464.243 249.577 464.243 266.661H428.589C426.36 266.661 427.103 268.147 427.103 271.861H467.957C467.957 262.204 470.928 254.776 479.098 250.32C490.24 244.377 498.411 251.063 501.382 251.805C506.582 231.75 534.065 222.837 549.663 238.435C556.348 244.377 557.091 247.349 559.32 257.748C572.69 250.32 585.317 258.49 585.317 274.089H608.344V269.632H589.774C589.031 258.49 578.632 249.577 568.233 249.577C566.005 249.577 565.262 250.32 562.291 250.32C561.548 245.12 555.606 236.95 551.892 233.978C535.55 221.351 514.009 224.322 504.353 236.95C502.125 239.921 499.896 242.149 499.154 245.12Z" fill="#49525B"/>
<path fill-rule="evenodd" clip-rule="evenodd" d="M301.572 490.983V493.212H306.029V490.983V289.688H301.572V490.983Z" fill="#B3BCBC"/>
<path fill-rule="evenodd" clip-rule="evenodd" d="M75.0217 17.8269C61.6515 11.1418 42.339 20.7981 42.339 38.625H26.7405V43.0817H46.7958C46.7958 35.6538 46.7958 32.6827 51.2525 25.9976C55.7092 21.5409 61.6515 20.7981 67.5938 20.7981C72.0506 20.7981 74.2789 23.7692 77.2501 23.7692C79.4785 17.8269 81.7068 14.8558 86.1636 11.1418C94.3342 2.22837 111.418 1.48558 121.817 11.8846C127.76 17.8269 128.502 20.0553 129.988 28.9687C134.445 28.9687 132.959 26.7404 139.644 26.7404C149.301 26.7404 155.243 34.9111 155.243 44.5673H176.041V40.1106H158.957C158.957 31.1971 149.301 23.0264 141.13 23.0264C135.93 23.0264 137.416 22.2837 133.702 23.0264C130.731 10.399 117.361 0 106.219 0H101.019C89.8775 0 76.5073 10.399 75.0217 17.8269Z" fill="#49515A"/>
<path fill-rule="evenodd" clip-rule="evenodd" d="M296.373 163.413C298.601 185.697 317.913 184.954 314.942 153.757C313.457 130.731 294.887 131.474 296.373 163.413Z" fill="#EF4836"/>
<path fill-rule="evenodd" clip-rule="evenodd" d="M461.272 499.154H583.089V493.954H461.272V499.154Z" fill="#49525B"/>
<path fill-rule="evenodd" clip-rule="evenodd" d="M89.8774 499.154H176.784V493.954H89.8774V499.154Z" fill="#49525B"/>
<path fill-rule="evenodd" clip-rule="evenodd" d="M0 59.4231H96.5625V54.9664H0V59.4231Z" fill="#49525A"/>
<path fill-rule="evenodd" clip-rule="evenodd" d="M68.3364 75.0216C68.3364 76.5072 68.3364 77.25 69.822 77.25H159.699V72.7933H69.822C68.3364 72.7933 68.3364 73.5361 68.3364 75.0216Z" fill="#48515A"/>
<path fill-rule="evenodd" clip-rule="evenodd" d="M516.238 287.459H592.745V283.002H516.238V287.459Z" fill="#49515A"/>
<path fill-rule="evenodd" clip-rule="evenodd" d="M384.022 499.154H446.416V493.954H384.022V499.154Z" fill="#48525A"/>
<path fill-rule="evenodd" clip-rule="evenodd" d="M488.755 304.543H552.635V300.087H488.755V304.543Z" fill="#48515A"/>
<path fill-rule="evenodd" clip-rule="evenodd" d="M453.844 287.459H502.125V283.002H453.844V287.459Z" fill="#49515A"/>
<path fill-rule="evenodd" clip-rule="evenodd" d="M147.072 57.9375H193.125V55.7091C193.125 54.2235 193.125 53.4808 190.897 53.4808H147.072V57.9375Z" fill="#48515A"/>
<path fill-rule="evenodd" clip-rule="evenodd" d="M34.9111 499.154H69.8222C71.3078 499.154 71.3078 499.154 71.3078 497.668V493.954H34.9111V499.154Z" fill="#49515B"/>
<path fill-rule="evenodd" clip-rule="evenodd" d="M193.868 499.154H225.808V493.954H193.868V499.154Z" fill="#49515B"/>
<path fill-rule="evenodd" clip-rule="evenodd" d="M311.228 66.851C311.971 60.1659 306.029 60.9086 305.286 63.8798C303.801 67.5937 307.514 69.8221 311.228 66.851Z" fill="#8F9FA1"/>
<path d="M240.623 176.366V170.716L265.552 131.273H269.651V140.026H266.881L248.046 169.83V170.273H281.617V176.366H240.623ZM267.324 188V174.649V172.018V131.273H273.861V188H267.324ZM310.5 188.776C306.327 188.776 302.772 187.64 299.836 185.369C296.9 183.079 294.656 179.764 293.105 175.425C291.554 171.067 290.778 165.804 290.778 159.636C290.778 153.506 291.554 148.271 293.105 143.931C294.675 139.573 296.928 136.249 299.864 133.96C302.818 131.651 306.364 130.497 310.5 130.497C314.636 130.497 318.173 131.651 321.109 133.96C324.063 136.249 326.316 139.573 327.867 143.931C329.437 148.271 330.222 153.506 330.222 159.636C330.222 165.804 329.446 171.067 327.895 175.425C326.344 179.764 324.1 183.079 321.164 185.369C318.228 187.64 314.673 188.776 310.5 188.776ZM310.5 182.682C314.636 182.682 317.849 180.687 320.139 176.699C322.429 172.71 323.574 167.023 323.574 159.636C323.574 154.724 323.048 150.542 321.995 147.089C320.961 143.636 319.465 141.004 317.508 139.195C315.569 137.385 313.233 136.48 310.5 136.48C306.401 136.48 303.197 138.502 300.888 142.546C298.58 146.572 297.426 152.268 297.426 159.636C297.426 164.548 297.943 168.722 298.977 172.156C300.011 175.591 301.498 178.204 303.437 179.995C305.394 181.786 307.749 182.682 310.5 182.682ZM339.418 176.366V170.716L364.347 131.273H368.446V140.026H365.676L346.841 169.83V170.273H380.412V176.366H339.418ZM366.119 188V174.649V172.018V131.273H372.656V188H366.119Z" fill="white"/>
</svg>
